inDegrees=no
num_controls=7
num_derivatives=13
num_iterations=65
num_multipliers=7
num_parameters=0
num_slacks=7
num_states=26
objective=0.446017
objective_accelerations=0.055925
objective_balance=0.002965
objective_effort=0.021804
objective_height=0.359834
objective_ligament=0.005489
solver_duration=899.153843
status=Solve_Succeeded
success=true
DataType=double
version=3
OpenSimVersion=4.5
endheader
time	/jointset/ground_pelvis/pelvis_tilt/value	/jointset/ground_pelvis/pelvis_tx/value	/jointset/ground_pelvis/pelvis_ty/value	/jointset/hip_l/hip_flexion_l/value	/jointset/hip_l/hip_adduction_l/value	/jointset/hip_l/hip_rotation_l/value	/jointset/back/lumbar_extension/value	/jointset/patellofemoral_l/patellar_flexion_l/value	/jointset/knee_l/knee_flexion_l/value	/jointset/knee_l/knee_adduction_l/value	/jointset/knee_l/knee_rotation_l/value	/jointset/ankle_l/ankle_angle_l/value	/jointset/subtalar_l/subtalar_angle_l/value	/jointset/ground_pelvis/pelvis_tilt/speed	/jointset/ground_pelvis/pelvis_tx/speed	/jointset/ground_pelvis/pelvis_ty/speed	/jointset/hip_l/hip_flexion_l/speed	/jointset/hip_l/hip_adduction_l/speed	/jointset/hip_l/hip_rotation_l/speed	/jointset/back/lumbar_extension/speed	/jointset/patellofemoral_l/patellar_flexion_l/speed	/jointset/knee_l/knee_flexion_l/speed	/jointset/knee_l/knee_adduction_l/speed	/jointset/knee_l/knee_rotation_l/speed	/jointset/ankle_l/ankle_angle_l/speed	/jointset/subtalar_l/subtalar_angle_l/speed	/forceset/tau_hip_flexion_l	/forceset/tau_hip_adduction_l	/forceset/tau_hip_rotation_l	/forceset/tau_knee_flexion_l	/forceset/tau_ankle_angle_l	/forceset/tau_subtalar_angle_l	/forceset/tau_lumbar_extension	lambda_cid13_p0	lambda_cid13_p1	lambda_cid13_p2	lambda_cid13_p3	lambda_cid13_p4	lambda_cid13_p5	lambda_cid14_p0	/jointset/ground_pelvis/pelvis_tilt/accel	/jointset/ground_pelvis/pelvis_tx/accel	/jointset/ground_pelvis/pelvis_ty/accel	/jointset/hip_l/hip_flexion_l/accel	/jointset/hip_l/hip_adduction_l/accel	/jointset/hip_l/hip_rotation_l/accel	/jointset/back/lumbar_extension/accel	/jointset/patellofemoral_l/patellar_flexion_l/accel	/jointset/knee_l/knee_flexion_l/accel	/jointset/knee_l/knee_adduction_l/accel	/jointset/knee_l/knee_rotation_l/accel	/jointset/ankle_l/ankle_angle_l/accel	/jointset/subtalar_l/subtalar_angle_l/accel	gamma_cid13_p0	gamma_cid13_p1	gamma_cid13_p2	gamma_cid13_p3	gamma_cid13_p4	gamma_cid13_p5	gamma_cid14_p0
1.5	-0.3246984775931653	-0.004561048197162803	0.7672250547583376	1.04255757374668	-0.4358820728061198	-0.2157260282060602	-0.2222124258263062	0.8209423810151394	0.8209423810148113	-0.1209653117266232	-0.1480486355076529	0.1670713091597168	0.001955769735766262	0.5705446936464645	0.2194863367168557	0.5140008950672182	-2.282991383520961	0.2159522365994147	-0.7085954396564436	0.3236678867365307	-2.059694161387597	-2.059694161387763	-0.1596585966926258	0.1321283221333219	-0.5195799275697204	-0.02799166094039635	-0.1505146584517415	0.05051709248775686	-0.01104688377871682	-0.2236250200977576	0.05269196118841062	0.01928386500002	0.152375629541849	-15.65802272872017	-7.973977022389078	3.608881170133835	-9.808677910868612	-521.2294173899975	-42.36042508747592	-24.22286168895481	0.514456716718687	0.691204935281898	-0.5035271976065399	-1.233233308163986	0.6680654271096638	-0.2596311065140311	1.407651628333574	-1.35143878617922	-1.351438786179584	0.1291897849703152	0.2059393780819838	-0.4488042932328276	0.5267904244981154	5.699670041561255e-07	5.770559468776984e-08	-3.77391926915842e-06	-2.586050103507651e-07	8.381189178327253e-07	2.164139407241605e-07	4.825158719889204e-07
1.51	-0.3189674257085039	-0.002331899802647597	0.7723388255029408	1.019667922258152	-0.4336904262826521	-0.2228222181458815	-0.2189068662381829	0.8002802098666378	0.8002802098650422	-0.1225590066446807	-0.1467171024148424	0.1618533370676775	0.001700616461827454	0.5755656063124632	0.226307780825321	0.5086386905095212	-2.294567620293169	0.2223910840612514	-0.7106470435541296	0.3373835540265671	-2.072428947967317	-2.072428947967818	-0.1589276870792646	0.1341182688802635	-0.5239256061222838	-0.02298008046449977	-0.1447108674424075	0.04927205709502432	-0.0108430272222671	-0.2210039666267915	0.05403524242899212	0.01868663465244469	0.1475620135042572	-15.03388328510481	-7.861276864825411	3.63362659922675	-9.855147101192671	-517.3394161018392	-42.5970929992142	-25.16562836503732	0.4809672031136042	0.6722439346487052	-0.5695787235928741	-1.064038338400868	0.6343268315134311	-0.1781213891645469	1.344452752578984	-1.187928039278366	-1.187928039327928	0.06786643445213007	0.1858305867820406	-0.4141278762469036	0.4975326021072988	5.807724374380721e-07	2.639253007059252e-07	-3.608731124847417e-06	-2.067557770052933e-07	8.554070459715314e-07	3.369662213224434e-07	4.858731275238531e-07
1.52	-0.3131891529646905	-3.561100983789651e-05	0.7773955718742194	0.9966736645063682	-0.4314338847991985	-0.2299389633972749	-0.2154659642826272	0.7795000049616576	0.7795000049615703	-0.1241408274857542	-0.1453676082065951	0.1565945725419654	0.001497417141231568	0.5799888654424559	0.232914416375754	0.5025960204027566	-2.303912636130676	0.228931228555655	-0.7127065017631479	0.3507363602464266	-2.083300912363495	-2.083300912364329	-0.1572837820690899	0.135720546178887	-0.5277384142740137	-0.0176008702698311	-0.1389070764387619	0.04802702169829292	-0.01063917062011349	-0.2183829131600772	0.05537852366765161	0.01808940429709964	0.1427483974630988	-14.41083599049851	-7.749231648570053	3.65944481345613	-9.954006622941963	-513.495515667499	-42.89917122542844	-26.10737091819496	0.394926009517279	0.6482432236751681	-0.6396203074199701	-0.7869891212249067	0.6883248336215122	-0.2612019687806536	1.335079414299331	-0.9788743494713013	-0.978874349471033	0.3117888643343672	0.1284054884195805	-0.3422302130663384	0.6003163682534454	5.826102721285018e-07	4.475797130643042e-07	-3.432085365718614e-06	-1.583934181293376e-07	8.584266943739947e-07	4.378293874057687e-07	4.846677014646353e-07
1.53	-0.3073692844004189	0.00232570607937131	0.7823885633480423	0.9735964297609456	-0.4291122159050445	-0.2370747819186109	-0.2118934403053566	0.7586204610248402	0.7586204610231119	-0.125704152714126	-0.1440036327485494	0.1513003881046995	0.001348898617127913	0.5839165784003679	0.2393169028256373	0.4958941018142526	-2.311223910116248	0.2353333635434945	-0.714238609236585	0.3637030041372169	-2.092287230559021	-2.092287230559955	-0.1555230119977034	0.137103280065591	-0.5310037002501743	-0.01214518302604572	-0.1334595252595205	0.04660905899204836	-0.01032362699175105	-0.2154917596561177	0.05625132731556561	0.01746632024666921	0.1382173386875705	-13.94966312547236	-7.595214872883705	3.675827962718274	-9.918778847987143	-509.8269467944108	-43.16261246906218	-27.0476502030841	0.3815104237451181	0.6314185940176911	-0.701535559002472	-0.6565643531190395	0.6061176944133218	-0.0659550400051349	1.267642217919892	-0.8105089351616098	-0.8105089351768356	0.08693262870867692	0.146901669001343	-0.3044553395592767	0.5120998209772959	5.749200333154449e-07	6.07258500909171e-07	-3.243265890845899e-06	-1.137358633772428e-07	8.462860830565941e-07	5.177728693169518e-07	4.786144262116323e-07
1.54	-0.301512175409431	0.004750081480759614	0.7873113240510938	0.9504554087123557	-0.4267285336883187	-0.2442192694961051	-0.2081932128209927	0.7376606542280132	0.7376606542279089	-0.1272541279267598	-0.1426250910917529	0.1459763952976253	0.00125371794916096	0.5874369507520487	0.2455260788115729	0.4885498662488846	-2.316669896736843	0.2413338930540217	-0.7144403128458291	0.3762770616862492	-2.099353483977349	-2.099353483978386	-0.1546137799201205	0.1386337871609635	-0.5337000882130789	-0.006933299040890272	-0.1280119740853259	0.04519109628259674	-0.01000808331560729	-0.2126006061571398	0.05712413096165448	0.01684323618996148	0.1336862799090018	-13.48818301285646	-7.442050475722624	3.693261563324173	-9.938150026762957	-506.1835180302538	-43.48324270131148	-27.98671460084839	0.3134578882706749	0.6095811308856998	-0.768083702792643	-0.4139316482301298	0.6080037381572596	0.004878804057641548	1.256562145948637	-0.5948613940323353	-0.5948613940322981	0.1414812655750004	0.1579601301545237	-0.2284506104149389	0.5515557165285482	5.303939759264191e-07	9.957632688957526e-07	-2.657026584732415e-06	2.898191470793335e-09	7.748987041327558e-07	5.838820237750126e-07	4.535456306832859e-07
1.55	-0.2956222685024475	0.007235256558673592	0.7921575470819214	0.927269783324121	-0.4242864185688534	-0.2513627877892731	-0.2043696613156435	0.716639552314043	0.7166395523138432	-0.1287962498908904	-0.1412326312754779	0.14062784597847	0.001209802455999913	0.5904474704112108	0.2514438452633991	0.4805983166892436	-2.320103103435287	0.2470407758867436	-0.714076895243279	0.3883140012392088	-2.104588485282818	-2.104588485283192	-0.1539035792806337	0.1399004480290618	-0.5359660161126588	-0.001894102137543369	-0.1223835838417407	0.04404567232253853	-0.009709543302277936	-0.2097334092596294	0.05751733618296499	0.01587790668559845	0.128896256836231	-13.21674844633796	-7.092594440596565	3.662974705728934	-9.479398584863116	-502.7814850631011	-43.53580283088348	-28.92547134736929	0.2802944397179327	0.5731733446859604	-0.8230425327730366	-0.2552077837233272	0.5446728582038498	0.08038838026500812	1.159374138467552	-0.4461335672556289	-0.446133567155695	0.02212805557689036	0.1171191080080224	-0.2190209976058547	0.4732551771990263	4.434266493085618e-07	1.647915361828208e-06	-1.612890516537199e-06	2.024616920815399e-07	6.352487451406343e-07	6.34051627037086e-07	4.065676487507406e-07
1.56	-0.2897051673122067	0.009777669089575241	0.7969213842271108	0.9040603873480845	-0.4217887061608294	-0.2584970088776781	-0.2004293175590617	0.6955744375734756	0.6955744375731786	-0.1303340021309998	-0.139826284840521	0.1352579659567552	0.001214909631855813	0.5928758074696487	0.2569735694091072	0.4720726891216016	-2.321424014256667	0.252453350814551	-0.7125808719641267	0.399635511932277	-2.1081560493263	-2.10815604932601	-0.15373983494348	0.1414111106119569	-0.5379662287272658	0.002871234764324594	-0.1167551935965273	0.04290024836283992	-0.009411003300058673	-0.2068662123603343	0.05791054140491412	0.01491257718238833	0.1241062337643495	-12.94504382461387	-6.74755002241012	3.638377046523644	-9.066946069876538	-499.394383663068	-43.62547012607869	-29.86547935868499	0.1970213681254447	0.5319726696629417	-0.8828993043925353	0.008527527182015084	0.5491421571750313	0.231399939377667	1.113476373970957	-0.2613739416357694	-0.261373941635739	0.03219000510903132	0.2067604731147087	-0.1753075534194032	0.4967837162338669	4.016658170500073e-07	1.97500312764114e-06	-1.14345035285509e-06	3.059763947948836e-07	5.623539307170704e-07	6.804204281489108e-07	3.885650191294766e-07
1.57	-0.2837664341606484	0.01237360460883422	0.8015971234933449	0.8808480332011065	-0.4192387118991324	-0.2656089945634015	-0.1963792257780793	0.6744825562962481	0.6744825562954885	-0.1318740027067011	-0.1384024489885412	0.1298700252163506	0.001266217380555462	0.5947957739379712	0.2621632459508696	0.4629850256863449	-2.320722985090119	0.2574677557482995	-0.7095304329877838	0.4102727539009572	-2.10989281822487	-2.109892818224752	-0.1544084221898748	0.143474279929101	-0.5395225052383376	0.007343873301697036	-0.1112160415442209	0.04101010430557229	-0.00912762853455535	-0.2043526491545149	0.05878655141007103	0.01418422937977974	0.1194494018246253	-12.51923741707221	-6.541523888391465	3.646353537073033	-8.935875446771883	-496.2089490808717	-43.99246555734556	-30.79541407687564	0.1782293673754225	0.5049778557200666	-0.9351048328599593	0.1494743978429294	0.4659038793938317	0.3851306313529916	1.022334554803299	-0.08080362661921811	-0.08080362664483069	-0.1383805312848729	0.2234943846391461	-0.1308121859209164	0.4154218626639697	4.164131027405807e-07	1.895760484554671e-06	-1.392380069814356e-06	2.894301001364747e-07	5.729030470042024e-07	7.220382265729248e-07	4.067815798973141e-07
1.58	-0.2778107523282883	0.01501993943537036	0.806179305131274	0.8576524061027945	-0.416640910744694	-0.2726818229085337	-0.1922260642881768	0.6533831122768849	0.6533831122766615	-0.1334250886413413	-0.1369545016006551	0.1244695168135941	0.001360835102652942	0.5962655436545131	0.2670534308645384	0.4533611634609387	-2.318078604465122	0.2620147293993178	-0.7047494038280244	0.420249453729291	-2.109668597629517	-2.109668597629572	-0.1559569071073916	0.1462334181914109	-0.5404797611881956	0.01153322944605431	-0.1056768894948025	0.03911996024679788	-0.008844253755698016	-0.2018390859507162	0.05966256141445345	0.01345588157462193	0.1147925698830931	-12.09969832111487	-6.336617616416518	3.65704275542511	-8.827347310038592	-493.1318791768562	-44.41607141643151	-31.70323494607143	0.1069820177684112	0.4720743440450755	-0.9901390624221831	0.3971978188704506	0.4556559006286682	0.5775179760605654	0.9813679459021869	0.1308239571480263	0.130823957148023	-0.1437895291145929	0.3459542621490497	-0.05550344117569285	0.4401272376321044	4.032021175481286e-07	1.865324706243958e-06	-1.391108389806334e-06	2.946827249909396e-07	5.536982039910038e-07	7.377749918473673e-07	4.003883419891501e-07
